<svg aria-hidden="true" xmlns="http://www.w3.org/2000/svg"><defs><symbol id="icon-menu" viewBox="0 0 24 24"><path d="M3 6h18v2.016H3V6zm0 6.984v-1.969h18v1.969H3zM3 18v-2.016h18V18H3z"/></symbol><symbol id="door" viewBox="0 0 32 32"><path fill="#52503b" style="fill:var(--color1,#52503b)" d="M24.352 0c1.593 0 2.93 1.301 2.981 2.966v26.016c0 1.665-1.336 3.018-2.981 3.018H7.648c-1.645 0-2.981-1.353-2.981-3.018V2.966C4.667 1.301 6.003 0 7.597 0h16.756zm-.051 1.769H7.597c-.668 0-1.182.572-1.182 1.197v26.016c0 .676.565 1.197 1.182 1.197h16.704c.668 0 1.182-.572 1.182-1.197V2.966c0-.676-.565-1.197-1.182-1.197zm-2.724 12.124c.925 0 1.748.78 1.748 1.769s-.771 1.769-1.748 1.769-1.748-.78-1.748-1.769.771-1.769 1.748-1.769z"/></symbol><symbol id="bath" viewBox="0 0 34 32"><path fill="#52503b" style="fill:var(--color1,#52503b)" d="M33.136 14.481H6.539V3.676c0-.732.554-1.294 1.274-1.294h4.267v1.632c-1.164.169-2.106 1.182-2.106 2.42V8.91a1 1 0 0 0 .997 1.013h3.934a1 1 0 0 0 .997-1.013V6.434a2.46 2.46 0 0 0-1.829-2.364V1.369a1 1 0 0 0-.997-1.013H7.812c-1.773 0-3.214 1.463-3.214 3.264v10.805H.996c-.554 0-.997.45-.997 1.013s.443 1.013.997 1.013h1.33v4.502c0 3.32 2.438 6.078 5.597 6.528l-1.219 2.757a.974.974 0 0 0 .499 1.294c.111.056.277.113.388.113.388 0 .72-.225.887-.563l1.552-3.489h15.626l1.552 3.489c.166.394.499.563.887.563.111 0 .277 0 .388-.113a.974.974 0 0 0 .499-1.294l-1.385-3.095a6.678 6.678 0 0 0 4.211-6.19v-4.502h1.33a1 1 0 0 0 .997-1.013c0-.506-.443-.957-.997-.957zM13.908 7.953h-1.995V6.434a.5.5 0 0 1 .499-.506h.997a.5.5 0 0 1 .499.506v1.519zm15.959 12.999c0 2.532-2.05 4.671-4.599 4.671H8.866c-2.494 0-4.599-2.082-4.599-4.671V16.45h25.6v4.502z"/></symbol><symbol id="bed" viewBox="0 0 32 32"><path fill="#52503b" style="fill:var(--color1,#52503b)" d="M27.18 22.909v-.104L24.117 9.974V2.805C24.117 1.247 22.892 0 21.36 0H10.537C9.005 0 7.78 1.247 7.78 2.805v7.169L4.717 22.805c0 .052-.051.156-.051.208v8.052c0 .519.408.935.919.935s.919-.416.919-.935V29.61c.204-.571 3.267-1.974 9.495-1.974s9.291 1.455 9.495 1.974v1.455c0 .519.408.935.919.935s.919-.416.919-.935v-8c-.102-.052-.153-.104-.153-.156zM9.363 11.013h13.12l2.655 11.117H6.709l2.655-11.117zm.205-8.208c0-.519.408-.987.97-.987h10.823c.511 0 .97.416.97.987v6.39H9.568v-6.39zm6.381 23.013c-2.859 0-7.096.364-9.495 1.558v-3.429h18.94v3.429c-2.348-1.195-6.586-1.558-9.444-1.558z"/></symbol><symbol id="plate" viewBox="0 0 32 32"><path fill="#52503b" style="fill:var(--color1,#52503b)" d="M29.455 0C30.806 0 31.949 1.093 32 2.446v27.057a2.497 2.497 0 0 1-2.494 2.498H2.493a2.497 2.497 0 0 1-2.494-2.498V2.446A2.441 2.441 0 0 1 2.441 0h27.013zm0 1.769H2.442a.687.687 0 0 0-.675.676v27.057c0 .364.312.676.675.676h27.013a.687.687 0 0 0 .675-.676V2.445a.688.688 0 0 0-.675-.676zm-9.507 24.559c.519 0 .935.416.935.937s-.416.937-.935.937h-.779c-.519 0-.935-.416-.935-.937s.416-.937.935-.937h.779zm4.831 0c.519 0 .935.416.935.937s-.416.937-.935.937H24c-.519 0-.935-.416-.935-.937s.416-.937.935-.937h.779zm-15.376-9.99c2.182 0 4 1.821 4 4.006s-1.818 4.006-4 4.006-4-1.821-4-4.006 1.818-4.006 4-4.006zm13.091 0c2.234 0 4 1.821 4 4.006s-1.818 4.006-4 4.006-4-1.821-4-4.006 1.818-4.006 4-4.006zM9.403 18.159c-1.195 0-2.182.989-2.182 2.185s.987 2.185 2.182 2.185c1.195 0 2.182-.989 2.182-2.185s-.987-2.185-2.182-2.185zm13.091 0c-1.195 0-2.182.989-2.182 2.185s.987 2.185 2.182 2.185c1.195 0 2.182-.989 2.182-2.185s-.987-2.185-2.182-2.185zM9.403 4.735c2.182 0 4 1.769 4 4.006 0 2.185-1.818 4.007-4 4.007s-4-1.821-4-4.007 1.818-4.006 4-4.006zm13.091 0c2.234 0 4 1.769 4 4.006 0 2.185-1.818 4.007-4 4.007s-4-1.821-4-4.007c0-2.185 1.818-4.006 4-4.006zM9.403 6.556c-1.195 0-2.182.989-2.182 2.185s.987 2.185 2.182 2.185c1.195 0 2.182-.989 2.182-2.185s-.987-2.185-2.182-2.185zm13.091 0c-1.195 0-2.182.989-2.182 2.185s.987 2.185 2.182 2.185c1.195 0 2.182-.989 2.182-2.185s-.987-2.185-2.182-2.185z"/></symbol><symbol id="coffee-maker" viewBox="0 0 32 32"><path fill="#52503b" style="fill:var(--color1,#52503b)" d="M28.187 0H9.421C7.639 0 6.223 1.403 6.223 3.169v2.493c0 1.455.944 2.649 2.306 3.013v2.078c0 .519.419.935.944.935s.943-.416.943-.935V8.831h10.746c.734 0 1.363.623 1.363 1.351v11.636c0 .727-.629 1.351-1.363 1.351H12.67a5.915 5.915 0 0 0 2.306-4.675.936.936 0 0 0-.944-.935H3.81a.936.936 0 0 0-.944.935c0 1.87.891 3.584 2.306 4.675h-1.31c-1.782 0-3.198 1.403-3.198 3.169v2.494c0 1.766 1.415 3.169 3.198 3.169h24.27c1.782 0 3.198-1.403 3.198-3.169V3.17c.052-1.714-1.415-3.169-3.145-3.169zM12.985 19.377c-.419 1.87-2.097 3.221-4.089 3.221s-3.669-1.403-4.089-3.221h8.177zm16.565 9.454c0 .727-.629 1.351-1.363 1.351H3.864c-.734 0-1.363-.623-1.363-1.351v-2.494c0-.727.629-1.351 1.363-1.351h17.194c1.782 0 3.198-1.403 3.198-3.169V10.181c0-1.766-1.415-3.169-3.198-3.169H9.421c-.734 0-1.363-.623-1.363-1.351V3.167c0-.727.629-1.351 1.363-1.351h18.714c.734 0 1.363.623 1.363 1.351v25.662h.052z"/></symbol><symbol id="air-conditioner" viewBox="0 0 64 32"><path fill="#52503b" style="fill:var(--color1,#52503b)" d="M59.013 0C61.714 0 64 2.24 64 5.013V26.88c0 2.88-2.286 5.12-4.987 5.12H4.987C2.286 32 .104 29.76 0 27.093V5.12C0 2.24 2.286 0 4.987 0h54.026zM30.234 21.76H18.805v6.507h11.429V21.76zm15.065 0H33.87v6.507h11.429V21.76zm-30.13 0H3.74v5.227c0 .747.519 1.28 1.247 1.28h10.182V21.76zm45.091 0H48.831v6.507h10.182c.727 0 1.351-.533 1.247-1.28V21.76zM59.013 3.733H4.987c-.727 0-1.247.533-1.247 1.28v13.12h56.623V5.12c0-.747-.623-1.387-1.351-1.387zm-6.13 5.12c1.039 0 1.87.853 1.87 1.92s-.831 1.92-1.87 1.92h-6.649c-1.039 0-1.87-.853-1.87-1.92s.831-1.92 1.87-1.92h6.649z"/></symbol><symbol id="briefcase" viewBox="0 0 34 32"><path fill="#52503b" style="fill:var(--color1,#52503b)" d="M29.592 6.263h-5.885V4.332A3.868 3.868 0 0 0 19.857.47h-5.83c-2.145 0-3.85 1.765-3.85 3.862v1.931H4.292c-2.365 0-4.29 1.931-4.29 4.303v5.406c0 .552.44.993.99.993h.495v10.482a4.067 4.067 0 0 0 4.07 4.082h22.772a4.067 4.067 0 0 0 4.07-4.082V16.965h.495c.55 0 .99-.441.99-.993v-5.406c0-2.372-1.925-4.303-4.29-4.303zM12.101 4.332c0-1.048.88-1.931 1.925-1.931h5.775c1.045 0 1.925.883 1.925 1.931v1.931H12.1V4.332zM1.98 10.566c0-1.269 1.045-2.372 2.365-2.372h25.302a2.386 2.386 0 0 1 2.365 2.372v4.468H1.98v-4.468zm28.492 16.826c0 1.214-.99 2.152-2.145 2.152H5.555a2.151 2.151 0 0 1-2.145-2.152V16.91h6.765v3.42c0 .552.44.993.99.993s.99-.441.99-.993v-3.42h9.681v3.42c0 .552.44.993.99.993s.99-.441.99-.993v-3.42h6.765v10.482h-.11z"/></symbol><symbol id="glass" viewBox="0 0 32 32"><path fill="#52503b" style="fill:var(--color1,#52503b)" d="M23.322 21.316a9.803 9.803 0 0 0 2.661-7.313l-.851-11.151c-.106-1.608-1.49-2.853-3.139-2.853H10.021c-1.649 0-3.033 1.245-3.139 2.853l-.851 11.151c-.213 2.697.745 5.342 2.66 7.313 1.65 1.763 3.938 2.852 6.385 3.06v5.757h-4.15c-.532 0-.958.415-.958.934s.426.933.958.933h10.163c.532 0 .958-.415.958-.933s-.426-.934-.958-.934h-4.15v-5.757c2.448-.207 4.736-1.297 6.385-3.06zM10.02 1.815h11.972c.639 0 1.224.519 1.277 1.141l.372 4.668H8.423l.372-4.668c0-.622.585-1.141 1.224-1.141zM7.945 14.107l.319-4.616h15.484l.319 4.616c.16 2.23-.585 4.305-2.128 5.964-1.543 1.608-3.671 2.541-5.959 2.541s-4.363-.882-5.959-2.541c-1.49-1.608-2.235-3.734-2.075-5.964z"/></symbol><symbol id="empty-star" viewBox="0 0 32 32"><path fill="#52503b" style="fill:var(--color1,#52503b)" d="M31.879 12.053c-.213-.64-.747-1.12-1.387-1.227l-8.907-1.387-4-8.427c-.32-.64-.907-1.013-1.6-1.013s-1.28.373-1.547 1.013l-4 8.48-8.96 1.44c-.64.107-1.173.587-1.387 1.227s-.053 1.387.427 1.867l6.453 6.613-1.493 9.227c-.107.693.16 1.387.747 1.813.32.213.64.32.96.32.267 0 .587-.053.8-.213l8-4.373 7.947 4.32a1.71 1.71 0 0 0 1.813-.107c.587-.427.853-1.12.747-1.813l-1.493-9.28 6.453-6.613c.48-.48.64-1.227.427-1.867zm-1.226 1.12-6.4 6.613c-.213.213-.32.587-.267.907l1.493 9.28c.053.373-.107.64-.32.747-.107.053-.373.213-.693.053l-8-4.32a1.02 1.02 0 0 0-.96 0l-8 4.373c-.32.16-.587.053-.693-.053-.16-.107-.373-.427-.32-.747l1.547-9.227c.053-.32-.053-.693-.267-.907L1.32 13.279a.817.817 0 0 1-.213-.8c.107-.267.267-.427.533-.48l8.96-1.44c.32-.053.64-.267.747-.587l4-8.48c.16-.267.373-.427.64-.427s.48.16.587.427l4 8.48c.16.32.427.533.747.587l8.907 1.387c.267.053.48.213.533.48.16.16.16.533-.107.747z"/></symbol><symbol id="star" viewBox="0 0 32 32"><path fill="#52503b" style="fill:var(--color1,#52503b)" d="m31.276 11.537-9.991-1.546L16.759.497a.85.85 0 0 0-1.546 0l-4.526 9.55-9.936 1.49c-.718.11-.994 1.049-.442 1.546l7.231 7.452-1.711 10.433c-.11.718.607 1.325 1.27.883l8.998-4.913 8.942 4.913c.607.331 1.38-.221 1.214-.883l-1.711-10.433 7.231-7.452c.442-.497.221-1.435-.497-1.546z"/></symbol><symbol id="pizza" viewBox="0 0 32 32"><path fill="#52503b" style="fill:var(--color1,#52503b)" d="M31.878 18.375c-1.145-3.64-3.748-7.592-7.236-11.077C21.206 3.814 17.25 1.266 13.606.122c-1.301-.416-2.759.26-3.227 1.56L.176 28.463c-.364.988-.156 2.028.573 2.756.521.52 1.145.78 1.822.78.312 0 .625-.052.937-.156l15.669-5.98c.052 0 .052 0 .104-.052l1.874-.728 9.11-3.484a2.583 2.583 0 0 0 1.614-3.224zM2.883 30.076c-.416.156-.729-.104-.833-.156-.104-.104-.364-.364-.156-.832l2.186-5.72c.521 1.144 1.614 1.924 2.967 1.924 1.77 0 3.228-1.456 3.228-3.224s-1.458-3.224-3.228-3.224c-.468 0-.937.104-1.353.312l4.06-10.713c.677.416 1.353.832 2.03 1.352a3.177 3.177 0 0 0-1.353 2.6 3.242 3.242 0 0 0 3.227 3.224 3.204 3.204 0 0 0 2.967-1.976c2.499 2.34 4.945 5.148 7.028 8.58l-1.249.468c0-1.768-1.458-3.224-3.228-3.224s-3.227 1.456-3.227 3.224c0 .832.312 1.56.833 2.132L2.883 30.075zm2.707-8.009c0-.78.625-1.404 1.406-1.404s1.406.624 1.406 1.404c0 .78-.625 1.404-1.406 1.404s-1.406-.624-1.406-1.404zm9.474-9.776v.104c0 .78-.625 1.404-1.405 1.404s-1.405-.624-1.405-1.404c0-.728.521-1.3 1.249-1.404.521.416 1.041.832 1.562 1.3zm3.748 11.753c-.625-.156-1.093-.728-1.093-1.352 0-.78.625-1.404 1.405-1.404s1.405.624 1.405 1.404c0 .312-.104.572-.26.78l-1.458.572zm10.88-4.161-4.321 1.664c-2.551-4.316-5.726-7.748-8.797-10.401-.052 0-.052-.052-.104-.052a31.476 31.476 0 0 0-2.186-1.716l-.052-.052a56.058 56.058 0 0 0-3.852-2.6l1.666-4.42a.783.783 0 0 1 .729-.52c.104 0 .156 0 .26.052 3.332 1.04 7.08 3.536 10.307 6.76s5.726 7.02 6.767 10.349c.156.364-.052.78-.417.936z"/></symbol><symbol id="wifi" viewBox="0 0 32 32"><path fill="#52503b" style="fill:var(--color1,#52503b)" d="M27.974 23.396c2.248 0 4.026 1.804 4.026 3.969s-1.83 3.969-4.026 3.969c-2.196 0-4.026-1.804-4.026-3.969s1.83-3.969 4.026-3.969zM29.438.667c.523 0 .941.412.941.928s-.418.928-.941.928c-15.216 0-27.608 12.164-27.555 27.213 0 .515-.418.928-.941.928s-.941-.412-.941-.928C.001 13.707 13.177.719 29.439.667zm-.052 8.401a.93.93 0 0 1 .941.928.875.875 0 0 1-.889.876c-10.562 0-19.137 8.453-19.085 18.812 0 .515-.418.928-.941.928s-.941-.412-.941-.928c0-11.339 9.359-20.616 20.915-20.616zm0 8.298c.523 0 .941.412.941.928s-.366.876-.889.876c-5.856 0-10.667 4.69-10.667 10.514 0 .515-.418.928-.941.928s-.941-.412-.941-.928c0-6.803 5.595-12.318 12.497-12.318zm-1.412 7.886c-1.203 0-2.196.979-2.196 2.165s.993 2.165 2.196 2.165c1.203 0 2.196-.979 2.196-2.165s-.994-2.165-2.196-2.165z"/></symbol><symbol id="service" viewBox="0 0 32 32"><path fill="#52503b" style="fill:var(--color1,#52503b)" d="M23.656 0c3.073 0 5.625 2.498 5.677 5.672v11.187c0 .937-.729 1.665-1.667 1.665h-1.094v11.083c0 1.301-1.094 2.393-2.396 2.393h-1.51c-1.302 0-2.396-1.093-2.396-2.393V1.666c0-.937.729-1.665 1.667-1.665h1.719zM8.292.052c.521 0 .938.416.938.937V8.95h2.917V1.041c0-.52.417-.937.938-.937s.885.416.937.885v13.32c0 .78-.573 1.353-1.354 1.353H11.47v13.893c0 1.301-1.094 2.393-2.396 2.393H7.616c-1.302 0-2.396-1.093-2.396-2.393V15.61H4.022c-.781 0-1.354-.572-1.354-1.353V.989c0-.468.365-.937.885-.937s.938.416.938.937v7.909h2.865V.989c0-.52.417-.937.938-.937zM24.75 18.524h-2.656v11.083c0 .312.26.572.573.572h1.51c.313 0 .573-.312.573-.624V18.524zM9.646 15.662H7.042v13.945c0 .312.26.572.573.572h1.458c.313 0 .573-.26.573-.572V15.662zM23.604 1.821h-1.563v14.881h5.417V5.671a3.844 3.844 0 0 0-3.854-3.85zm-11.406 8.898H4.49v3.122h7.708v-3.122z"/></symbol><symbol id="tree" viewBox="0 0 32 32"><path fill="#52503b" style="fill:var(--color1,#52503b)" d="m25.878 10.796.173.009c.397.044.744.238.972.549l3.018 4.011c.312.406.364.965.104 1.421a1.762 1.762 0 0 1-.625.609l2.29 3.808c.26.457.26.965-.052 1.421-.208.457-.676.711-1.197.711h-3.747v4.417c0 .508-.416.914-.937.914s-.937-.406-.937-.914v-4.417h-3.799c-.468 0-.937-.305-1.197-.711s-.26-.965 0-1.371l2.29-3.858c-.26-.102-.468-.355-.625-.609a1.286 1.286 0 0 1 .104-1.421l3.018-4.011c.26-.355.677-.558 1.145-.558zM8.601 3.333c.468 0 .885.203 1.145.558l4.892 6.397c.312.406.364.965.104 1.421s-.729.762-1.301.762l3.695 6.346c.26.406.26.965 0 1.371-.208.406-.676.66-1.197.66H9.59v6.854c0 .508-.416.914-.937.914s-.937-.406-.937-.914v-6.854H1.419c-.52 0-.989-.305-1.249-.762-.26-.406-.208-.965.052-1.371l4.059-6.244h-.468c-.52 0-.989-.305-1.249-.762s-.208-1.015.104-1.421l4.788-6.397c.26-.355.677-.558 1.145-.558zm17.225 9.494-2.342 3.097c.208.102.416.305.52.508.26.406.26.965 0 1.371l-2.186 3.706h8.014l-2.186-3.706a1.302 1.302 0 0 1 0-1.371c.104-.203.312-.406.52-.508l-2.342-3.097zM8.601 5.415l-4.007 5.331h.364c.52 0 1.041.305 1.249.711s.208.965-.052 1.371l-4.007 6.244h13.01l-3.695-6.295a1.302 1.302 0 0 1 0-1.371c.26-.355.677-.66 1.145-.66L8.601 5.415z"/></symbol><symbol id="hanger" viewBox="0 0 32 32"><path fill="#52503b" style="fill:var(--color1,#52503b)" d="m27.78 21.351-9.424-4.935c.104-.312 0-.727-.311-.935-.363-.312-.932-.26-1.294.104-.104.156-.518.26-.984.156-.414-.104-.673-.416-.725-.883-.052-.675.259-1.143 1.036-1.455.518-.208.88-.727.828-1.299V8.727c1.968-.416 3.418-2.182 3.418-4.312 0-2.442-1.968-4.416-4.401-4.416s-4.401 1.974-4.401 4.416a4.398 4.398 0 0 0 3.521 4.312l.052 3.065c-1.294.675-2.019 1.818-1.864 3.221.052.519.207.935.466 1.351l-9.476 4.987c-.777.364-1.295 1.091-1.502 1.922v.052c-.052.208-.052.416-.052.623v5.143A2.9 2.9 0 0 0 5.567 32h20.867a2.9 2.9 0 0 0 2.9-2.909v-5.143c0-1.143-.621-2.13-1.553-2.597zM13.385 4.416c0-1.455 1.139-2.597 2.589-2.597s2.589 1.143 2.589 2.597-1.139 2.597-2.589 2.597a2.568 2.568 0 0 1-2.589-2.597zm2.02 13.142.052-.052c.259.052.466.104.725.104.155 0 .311 0 .466-.052l9.527 4.987H5.826l9.579-4.987zm11.029 12.624H5.515a1.095 1.095 0 0 1-1.087-1.091v-4.675h23.094v4.675c0 .571-.518 1.091-1.087 1.091z"/></symbol><symbol id="bread" viewBox="0 0 72 32"><path fill="#52503b" style="fill:var(--color1,#52503b)" d="M36.058 1C15.922 1 0 9.468 0 20.113c0 .968.117 2.056.468 3.145.702 2.177 2.341 3.871 4.566 4.597C11.005 29.791 22.829 31 35.941 31s24.936-1.21 30.907-3.145a7.138 7.138 0 0 0 4.566-4.476l.117-.242c.234-1.089.469-2.056.469-3.024C72.116 9.347 56.195 1 36.058 1zm31.726 20.927v.121a2.628 2.628 0 0 1-1.873 1.815c-5.619 1.814-17.326 2.903-29.853 2.903s-24.234-1.21-29.736-2.903c-.937-.363-1.639-.968-1.873-1.815-.234-.605-.234-1.331-.234-1.935 0-4.234 4.097-8.226 10.536-11.008 1.171 5.202 4.8 8.952 9.132 8.952 1.171 0 2.107-.968 2.107-2.177s-.937-2.177-2.107-2.177c-2.459 0-4.683-2.54-5.268-6.169a57.218 57.218 0 0 1 11.824-2.298c.703 5.927 4.215 12.702 9.366 12.702 1.171 0 2.107-.968 2.107-2.177s-.937-2.177-2.107-2.177c-2.224 0-4.683-4.234-5.268-8.71h1.522c3.512 0 7.024.242 10.185.847.234 6.653 4.449 12.097 9.483 12.097 1.171 0 2.107-.968 2.107-2.177s-.937-2.177-2.107-2.177c-2.693 0-4.917-3.145-5.385-7.016 10.302 2.54 17.561 7.621 17.561 13.306.117.968 0 1.573-.117 2.177z"/></symbol><symbol id="forest" viewBox="0 0 41 32"><path fill="#52503b" style="fill:var(--color1,#52503b)" d="m26.449 8.401.304.011c1.399.105 2.542.936 3.103 2.226l7.814 18.488h2.271c.668 0 1.202.461 1.202 1.119s-.534 1.184-1.202 1.184H1.203c-.668 0-1.202-.461-1.202-1.119s.534-1.184 1.202-1.184h1.469l6.813-16.448c.534-1.382 1.803-2.237 3.34-2.237 1.536.066 2.805.855 3.406 2.237l3.072 7.171 3.807-9.211c.534-1.382 1.803-2.237 3.34-2.237zm0 2.368-.066.002c-.253.015-.833.13-1.137.787L20.504 22.94l2.672 6.25h2.204v-1.579c-1.336-.592-2.271-2.171-2.271-4.145 0-2.5 1.536-4.408 3.406-4.408s3.406 1.974 3.406 4.408c0 1.974-.868 3.553-2.204 4.145v1.579h7.414L27.65 11.557c-.267-.724-1.002-.79-1.202-.79zm-13.625 2.04c-.2 0-.868.066-1.202.79L5.143 29.192h15.495l-6.612-15.593c-.267-.724-1.002-.79-1.202-.79zm13.692 8.487c-.401 0-1.069.79-1.069 2.105s.601 2.105 1.069 2.105 1.069-.79 1.069-2.105c0-1.316-.668-2.105-1.069-2.105zM35.199.571c2.338 0 4.208 1.842 4.208 4.145s-1.937 4.145-4.208 4.145-4.208-1.842-4.208-4.145S32.861.571 35.199.571zm0 2.369c-1.002 0-1.87.79-1.87 1.842s.801 1.842 1.87 1.842 1.87-.79 1.87-1.842-.868-1.842-1.87-1.842z"/></symbol><symbol id="icon-linkedin" viewBox="0 0 20 20"><path d="M10 .4C4.698.4.4 4.698.4 10s4.298 9.6 9.6 9.6 9.6-4.298 9.6-9.6S15.302.4 10 .4zM7.65 13.979H5.706V7.723H7.65v6.256zm-.984-7.024c-.614 0-1.011-.435-1.011-.973 0-.549.409-.971 1.036-.971s1.011.422 1.023.971c0 .538-.396.973-1.048.973zm8.084 7.024h-1.944v-3.467c0-.807-.282-1.355-.985-1.355-.537 0-.856.371-.997.728-.052.127-.065.307-.065.486v3.607H8.814v-4.26c0-.781-.025-1.434-.051-1.996h1.689l.089.869h.039c.256-.408.883-1.01 1.932-1.01 1.279 0 2.238.857 2.238 2.699v3.699z"/></symbol><symbol id="icon-github" viewBox="0 0 32 32"><path d="M16 .395c-8.836 0-16 7.163-16 16 0 7.069 4.585 13.067 10.942 15.182.8.148 1.094-.347 1.094-.77 0-.381-.015-1.642-.022-2.979-4.452.968-5.391-1.888-5.391-1.888-.728-1.849-1.776-2.341-1.776-2.341-1.452-.993.11-.973.11-.973 1.606.113 2.452 1.649 2.452 1.649 1.427 2.446 3.743 1.739 4.656 1.33.143-1.034.558-1.74 1.016-2.14-3.554-.404-7.29-1.777-7.29-7.907 0-1.747.625-3.174 1.649-4.295-.166-.403-.714-2.03.155-4.234 0 0 1.344-.43 4.401 1.64a15.353 15.353 0 0 1 4.005-.539c1.359.006 2.729.184 4.008.539 3.054-2.07 4.395-1.64 4.395-1.64.871 2.204.323 3.831.157 4.234 1.026 1.12 1.647 2.548 1.647 4.295 0 6.145-3.743 7.498-7.306 7.895.574.497 1.085 1.47 1.085 2.963 0 2.141-.019 3.864-.019 4.391 0 .426.288.925 1.099.768C27.421 29.457 32 23.462 32 16.395c0-8.837-7.164-16-16-16z"/></symbol></defs></svg>