<svg aria-hidden="true" xmlns="http://www.w3.org/2000/svg">
  <defs>

    <!-- arrpw -->
    <symbol id="icon-arrow-right" viewBox="0 0 32 32">
      <path
        d="M19.414 27.414l10-10c0.781-0.781 0.781-2.047 0-2.828l-10-10c-0.781-0.781-2.047-0.781-2.828 0s-0.781 2.047 0 2.828l6.586 6.586h-19.172c-1.105 0-2 0.895-2 2s0.895 2 2 2h19.172l-6.586 6.586c-0.39 0.39-0.586 0.902-0.586 1.414s0.195 1.024 0.586 1.414c0.781 0.781 2.047 0.781 2.828 0z">
      </path>
    </symbol>

    <symbol id="icon-arrow-left" viewBox="0 0 32 32">
      <path
        d="M12.586 27.414l-10-10c-0.781-0.781-0.781-2.047 0-2.828l10-10c0.781-0.781 2.047-0.781 2.828 0s0.781 2.047 0 2.828l-6.586 6.586h19.172c1.105 0 2 0.895 2 2s-0.895 2-2 2h-19.172l6.586 6.586c0.39 0.39 0.586 0.902 0.586 1.414s-0.195 1.024-0.586 1.414c-0.781 0.781-2.047 0.781-2.828 0z">
      </path>
    </symbol>

    //arrangements
    <symbol id="door" viewBox="0 0 32 32">
      <path fill="#52503b" style="fill: var(--color1, #52503b)"
        d="M24.352 0c1.593 0 2.93 1.301 2.981 2.966v26.016c0 1.665-1.336 3.018-2.981 3.018h-16.704c-1.645 0-2.981-1.353-2.981-3.018v-26.016c0-1.665 1.336-2.966 2.93-2.966h16.756zM24.301 1.769h-16.704c-0.668 0-1.182 0.572-1.182 1.197v26.016c0 0.676 0.565 1.197 1.182 1.197h16.704c0.668 0 1.182-0.572 1.182-1.197v-26.016c0-0.676-0.565-1.197-1.182-1.197zM21.577 13.893c0.925 0 1.748 0.78 1.748 1.769s-0.771 1.769-1.748 1.769c-0.977 0-1.748-0.78-1.748-1.769s0.771-1.769 1.748-1.769z">
      </path>
    </symbol>

    <symbol id="bath" viewBox="0 0 34 32">
      <path fill="#52503b" style="fill: var(--color1, #52503b)"
        d="M33.136 14.481h-26.597v-10.805c0-0.732 0.554-1.294 1.274-1.294h4.267v1.632c-1.164 0.169-2.106 1.182-2.106 2.42v2.476c0 0.563 0.443 1.013 0.997 1.013h3.934c0.554 0 0.997-0.45 0.997-1.013v-2.476c0-1.125-0.776-2.082-1.829-2.364v-2.701c0-0.563-0.443-1.013-0.997-1.013h-5.264c-1.773 0-3.214 1.463-3.214 3.264v10.805h-3.602c-0.554 0-0.997 0.45-0.997 1.013s0.443 1.013 0.997 1.013h1.33v4.502c0 3.32 2.438 6.078 5.597 6.528l-1.219 2.757c-0.222 0.506 0 1.069 0.499 1.294 0.111 0.056 0.277 0.113 0.388 0.113 0.388 0 0.72-0.225 0.887-0.563l1.552-3.489h15.238c0.111 0 0.222 0 0.388 0l1.552 3.489c0.166 0.394 0.499 0.563 0.887 0.563 0.111 0 0.277 0 0.388-0.113 0.499-0.225 0.72-0.788 0.499-1.294l-1.385-3.095c2.438-0.957 4.211-3.377 4.211-6.19v-4.502h1.33c0.554 0 0.997-0.45 0.997-1.013 0-0.506-0.443-0.957-0.997-0.957zM13.908 7.953h-1.995v-1.519c0-0.281 0.222-0.506 0.499-0.506h0.997c0.277 0 0.499 0.225 0.499 0.506v1.519zM29.867 20.952c0 2.532-2.050 4.671-4.599 4.671h-16.402c-2.494 0-4.599-2.082-4.599-4.671v-4.502h25.6v4.502z">
      </path>
    </symbol>

    <symbol id="bed" viewBox="0 0 32 32">
      <path fill="#52503b" style="fill: var(--color1, #52503b)"
        d="M27.18 22.909v-0.052c0 0 0 0 0-0.052l-3.063-12.831v-7.169c0-1.558-1.225-2.805-2.757-2.805h-10.823c-1.532 0-2.757 1.247-2.757 2.805v7.169l-3.063 12.831c0 0.052-0.051 0.156-0.051 0.208v8.052c0 0.519 0.408 0.935 0.919 0.935s0.919-0.416 0.919-0.935v-1.455c0.204-0.571 3.267-1.974 9.495-1.974s9.291 1.455 9.495 1.974v1.455c0 0.519 0.408 0.935 0.919 0.935s0.919-0.416 0.919-0.935v-8c-0.102-0.052-0.153-0.104-0.153-0.156zM9.363 11.013h13.12l2.655 11.117h-18.429l2.655-11.117zM9.568 2.805c0-0.519 0.408-0.987 0.97-0.987h10.823c0.511 0 0.97 0.416 0.97 0.987v6.39h-12.763v-6.39zM15.949 25.818c-2.859 0-7.096 0.364-9.495 1.558v-3.429h18.94v3.429c-2.348-1.195-6.586-1.558-9.444-1.558z">
      </path>
    </symbol>

    <!--    amenities -->

    <symbol id="plate" viewBox="0 0 32 32">
      <path fill="#52503b" style="fill: var(--color1, #52503b)"
        d="M29.455 0c1.351 0 2.494 1.093 2.545 2.446v27.057c0 1.405-1.143 2.498-2.494 2.498h-27.013c-1.403 0-2.494-1.145-2.494-2.498v-27.057c0-1.353 1.091-2.446 2.442-2.446h27.013zM29.455 1.769h-27.013c-0.364 0-0.675 0.312-0.675 0.676v27.057c0 0.364 0.312 0.676 0.675 0.676h27.013c0.364 0 0.675-0.312 0.675-0.676v-27.057c0-0.364-0.312-0.676-0.675-0.676zM19.948 26.328c0.519 0 0.935 0.416 0.935 0.937s-0.416 0.937-0.935 0.937h-0.779c-0.519 0-0.935-0.416-0.935-0.937s0.416-0.937 0.935-0.937h0.779zM24.779 26.328c0.519 0 0.935 0.416 0.935 0.937s-0.416 0.937-0.935 0.937h-0.779c-0.519 0-0.935-0.416-0.935-0.937s0.416-0.937 0.935-0.937h0.779zM9.403 16.338c2.182 0 4 1.821 4 4.006s-1.818 4.006-4 4.006c-2.182 0-4-1.821-4-4.006s1.818-4.006 4-4.006zM22.494 16.338c2.234 0 4 1.821 4 4.006s-1.818 4.006-4 4.006c-2.182 0-4-1.821-4-4.006s1.818-4.006 4-4.006zM9.403 18.159c-1.195 0-2.182 0.989-2.182 2.185s0.987 2.185 2.182 2.185c1.195 0 2.182-0.989 2.182-2.185s-0.987-2.185-2.182-2.185zM22.494 18.159c-1.195 0-2.182 0.989-2.182 2.185s0.987 2.185 2.182 2.185c1.195 0 2.182-0.989 2.182-2.185s-0.987-2.185-2.182-2.185zM9.403 4.735c2.182 0 4 1.769 4 4.006 0 2.185-1.818 4.007-4 4.007s-4-1.821-4-4.007 1.818-4.006 4-4.006zM22.494 4.735c2.234 0 4 1.769 4 4.006 0 2.185-1.818 4.007-4 4.007s-4-1.821-4-4.007c0-2.185 1.818-4.006 4-4.006zM9.403 6.556c-1.195 0-2.182 0.989-2.182 2.185s0.987 2.185 2.182 2.185c1.195 0 2.182-0.989 2.182-2.185s-0.987-2.185-2.182-2.185zM22.494 6.556c-1.195 0-2.182 0.989-2.182 2.185s0.987 2.185 2.182 2.185c1.195 0 2.182-0.989 2.182-2.185s-0.987-2.185-2.182-2.185z">
      </path>
    </symbol>

    <symbol id="coffee-maker" viewBox="0 0 32 32">
      <path fill="#52503b" style="fill: var(--color1, #52503b)"
        d="M28.187 0h-18.766c-1.782 0-3.198 1.403-3.198 3.169v2.493c0 1.455 0.944 2.649 2.306 3.013v2.078c0 0.519 0.419 0.935 0.944 0.935s0.943-0.416 0.943-0.935v-1.922h10.746c0.734 0 1.363 0.623 1.363 1.351v11.636c0 0.727-0.629 1.351-1.363 1.351h-8.492c1.415-1.091 2.306-2.805 2.306-4.675 0-0.519-0.419-0.935-0.944-0.935h-10.222c-0.524 0-0.944 0.416-0.944 0.935 0 1.87 0.891 3.584 2.306 4.675h-1.31c-1.782 0-3.198 1.403-3.198 3.169v2.494c0 1.766 1.415 3.169 3.198 3.169h24.27c1.782 0 3.198-1.403 3.198-3.169v-25.662c0.052-1.714-1.415-3.169-3.145-3.169zM12.985 19.377c-0.419 1.87-2.097 3.221-4.089 3.221s-3.669-1.403-4.089-3.221h8.177zM29.55 28.831c0 0.727-0.629 1.351-1.363 1.351h-24.323c-0.734 0-1.363-0.623-1.363-1.351v-2.494c0-0.727 0.629-1.351 1.363-1.351h17.194c1.782 0 3.198-1.403 3.198-3.169v-11.636c0-1.766-1.415-3.169-3.198-3.169h-11.637c-0.734 0-1.363-0.623-1.363-1.351v-2.494c0-0.727 0.629-1.351 1.363-1.351h18.714c0.734 0 1.363 0.623 1.363 1.351v25.662h0.052z">
      </path>
    </symbol>

    <symbol id="air-conditioner" viewBox="0 0 64 32">
      <path fill="#52503b" style="fill: var(--color1, #52503b)"
        d="M59.013 0c2.701 0 4.987 2.24 4.987 5.013v21.867c0 2.88-2.286 5.12-4.987 5.12h-54.026c-2.701 0-4.883-2.24-4.987-4.907v-21.973c0-2.88 2.286-5.12 4.987-5.12h54.026zM30.234 21.76h-11.429v6.507h11.429v-6.507zM45.299 21.76h-11.429v6.507h11.429v-6.507zM15.169 21.76h-11.429v5.227c0 0.747 0.519 1.28 1.247 1.28h10.182v-6.507zM60.26 21.76h-11.429v6.507h10.182c0.727 0 1.351-0.533 1.247-1.28v-5.227zM59.013 3.733h-54.026c-0.727 0-1.247 0.533-1.247 1.28v13.12h56.623v-13.013c0-0.747-0.623-1.387-1.351-1.387zM52.883 8.853c1.039 0 1.87 0.853 1.87 1.92s-0.831 1.92-1.87 1.92h-6.649c-1.039 0-1.87-0.853-1.87-1.92s0.831-1.92 1.87-1.92h6.649z">
      </path>
    </symbol>

    <symbol id="briefcase" viewBox="0 0 34 32">
      <path fill="#52503b" style="fill: var(--color1, #52503b)"
        d="M29.592 6.263h-5.885v-1.931c0-2.151-1.76-3.862-3.85-3.862h-5.83c-2.145 0-3.85 1.765-3.85 3.862v1.931h-5.885c-2.365 0-4.29 1.931-4.29 4.303v5.406c0 0.552 0.44 0.993 0.99 0.993h0.495v10.482c0 2.262 1.815 4.082 4.070 4.082h22.772c2.255 0 4.070-1.821 4.070-4.082v-10.482h0.495c0.55 0 0.99-0.441 0.99-0.993v-5.406c0-2.372-1.925-4.303-4.29-4.303zM12.101 4.332c0-1.048 0.88-1.931 1.925-1.931h5.775c1.045 0 1.925 0.883 1.925 1.931v1.931h-9.626v-1.931zM1.98 10.566c0-1.269 1.045-2.372 2.365-2.372h25.302c1.265 0 2.365 1.048 2.365 2.372v4.468h-30.032v-4.468zM30.472 27.392c0 1.214-0.99 2.152-2.145 2.152h-22.772c-1.21 0-2.145-0.993-2.145-2.152v-10.482h6.765v3.42c0 0.552 0.44 0.993 0.99 0.993s0.99-0.441 0.99-0.993v-3.42h9.681v3.42c0 0.552 0.44 0.993 0.99 0.993s0.99-0.441 0.99-0.993v-3.42h6.765v10.482h-0.11z">
      </path>
    </symbol>

    <symbol id="glass" viewBox="0 0 32 32">
      <path fill="#52503b" style="fill: var(--color1, #52503b)"
        d="M23.322 21.316c1.862-1.971 2.82-4.616 2.661-7.313l-0.851-11.151c-0.106-1.608-1.49-2.853-3.139-2.853h-11.972c-1.649 0-3.033 1.245-3.139 2.853l-0.851 11.151c-0.213 2.697 0.745 5.342 2.66 7.313 1.65 1.763 3.938 2.852 6.385 3.060v5.757h-4.15c-0.532 0-0.958 0.415-0.958 0.934s0.426 0.933 0.958 0.933h10.163c0.532 0 0.958-0.415 0.958-0.933s-0.426-0.934-0.958-0.934h-4.15v-5.757c2.448-0.207 4.736-1.297 6.385-3.060zM10.020 1.815h11.972c0.639 0 1.224 0.519 1.277 1.141l0.372 4.668h-15.218l0.372-4.668c0-0.622 0.585-1.141 1.224-1.141zM7.945 14.107l0.319-4.616h15.484l0.319 4.616c0.16 2.23-0.585 4.305-2.128 5.964-1.543 1.608-3.671 2.541-5.959 2.541s-4.363-0.882-5.959-2.541c-1.49-1.608-2.235-3.734-2.075-5.964z">
      </path>
    </symbol>

    <symbol id="empty-star" viewBox="0 0 32 32">
      <path fill="#52503b" style="fill: var(--color1, #52503b)"
        d="M31.879 12.053c-0.213-0.64-0.747-1.12-1.387-1.227l-8.907-1.387-4-8.427c-0.32-0.64-0.907-1.013-1.6-1.013s-1.28 0.373-1.547 1.013l-4 8.48-8.96 1.44c-0.64 0.107-1.173 0.587-1.387 1.227s-0.053 1.387 0.427 1.867l6.453 6.613-1.493 9.227c-0.107 0.693 0.16 1.387 0.747 1.813 0.32 0.213 0.64 0.32 0.96 0.32 0.267 0 0.587-0.053 0.8-0.213l8-4.373 7.947 4.32c0.587 0.32 1.28 0.267 1.813-0.107 0.587-0.427 0.853-1.12 0.747-1.813l-1.493-9.28 6.453-6.613c0.48-0.48 0.64-1.227 0.427-1.867zM30.653 13.173l-6.4 6.613c-0.213 0.213-0.32 0.587-0.267 0.907l1.493 9.28c0.053 0.373-0.107 0.64-0.32 0.747-0.107 0.053-0.373 0.213-0.693 0.053l-8-4.32c-0.32-0.16-0.64-0.16-0.96 0l-8 4.373c-0.32 0.16-0.587 0.053-0.693-0.053-0.16-0.107-0.373-0.427-0.32-0.747l1.547-9.227c0.053-0.32-0.053-0.693-0.267-0.907l-6.453-6.613c-0.267-0.267-0.267-0.587-0.213-0.8 0.107-0.267 0.267-0.427 0.533-0.48l8.96-1.44c0.32-0.053 0.64-0.267 0.747-0.587l4-8.48c0.16-0.267 0.373-0.427 0.64-0.427s0.48 0.16 0.587 0.427l4 8.48c0.16 0.32 0.427 0.533 0.747 0.587l8.907 1.387c0.267 0.053 0.48 0.213 0.533 0.48 0.16 0.16 0.16 0.533-0.107 0.747z">
      </path>
    </symbol>

    <symbol id="star" viewBox="0 0 32 32">
      <path fill="#52503b" style="fill: var(--color1, #52503b)"
        d="M31.276 11.537l-9.991-1.546-4.526-9.494c-0.331-0.662-1.214-0.662-1.546 0l-4.526 9.55-9.936 1.49c-0.718 0.11-0.994 1.049-0.442 1.546l7.231 7.452-1.711 10.433c-0.11 0.718 0.607 1.325 1.27 0.883l8.998-4.913 8.942 4.913c0.607 0.331 1.38-0.221 1.214-0.883l-1.711-10.433 7.231-7.452c0.442-0.497 0.221-1.435-0.497-1.546z">
      </path>
    </symbol>

    <symbol id="pizza" viewBox="0 0 32 32">
      <path fill="#52503b" style="fill: var(--color1, #52503b)"
        d="M31.878 18.375c-1.145-3.64-3.748-7.592-7.236-11.077-3.436-3.484-7.392-6.032-11.036-7.176-1.301-0.416-2.759 0.26-3.227 1.56l-10.203 26.781c-0.364 0.988-0.156 2.028 0.573 2.756 0.521 0.52 1.145 0.78 1.822 0.78 0.312 0 0.625-0.052 0.937-0.156l15.669-5.98c0.052 0 0.052 0 0.104-0.052l1.874-0.728 9.11-3.484c1.354-0.468 2.030-1.924 1.614-3.224zM2.883 30.076c-0.416 0.156-0.729-0.104-0.833-0.156-0.104-0.104-0.364-0.364-0.156-0.832l2.186-5.72c0.521 1.144 1.614 1.924 2.967 1.924 1.77 0 3.228-1.456 3.228-3.224s-1.458-3.224-3.228-3.224c-0.468 0-0.937 0.104-1.353 0.312l4.060-10.713c0.677 0.416 1.353 0.832 2.030 1.352-0.833 0.572-1.353 1.56-1.353 2.6 0 1.768 1.458 3.224 3.227 3.224 1.354 0 2.499-0.832 2.967-1.976 2.499 2.34 4.945 5.148 7.028 8.58l-1.249 0.468c0-1.768-1.458-3.224-3.228-3.224s-3.227 1.456-3.227 3.224c0 0.832 0.312 1.56 0.833 2.132l-13.899 5.252zM5.59 22.067c0-0.78 0.625-1.404 1.406-1.404s1.406 0.624 1.406 1.404c0 0.78-0.625 1.404-1.406 1.404s-1.406-0.624-1.406-1.404zM15.064 12.291c0 0.052 0 0.052 0 0.104 0 0.78-0.625 1.404-1.405 1.404s-1.405-0.624-1.405-1.404c0-0.728 0.521-1.3 1.249-1.404 0.521 0.416 1.041 0.832 1.562 1.3zM18.812 24.044c-0.625-0.156-1.093-0.728-1.093-1.352 0-0.78 0.625-1.404 1.405-1.404s1.405 0.624 1.405 1.404c0 0.312-0.104 0.572-0.26 0.78l-1.458 0.572zM29.692 19.883l-4.321 1.664c-2.551-4.316-5.726-7.748-8.797-10.401-0.052 0-0.052-0.052-0.104-0.052-0.729-0.624-1.457-1.196-2.186-1.716l-0.052-0.052c-1.353-0.988-2.655-1.872-3.852-2.6l1.666-4.42c0.104-0.312 0.417-0.52 0.729-0.52 0.104 0 0.156 0 0.26 0.052 3.332 1.040 7.080 3.536 10.307 6.76s5.726 7.020 6.767 10.349c0.156 0.364-0.052 0.78-0.417 0.936z">
      </path>
    </symbol>

    <symbol id="wifi" viewBox="0 0 32 32">
      <path fill="#52503b" style="fill: var(--color1, #52503b)"
        d="M27.974 23.396c2.248 0 4.026 1.804 4.026 3.969s-1.83 3.969-4.026 3.969c-2.196 0-4.026-1.804-4.026-3.969s1.83-3.969 4.026-3.969zM29.438 0.667c0.523 0 0.941 0.412 0.941 0.928s-0.418 0.928-0.941 0.928c-15.216 0-27.608 12.164-27.555 27.213 0 0.515-0.418 0.928-0.941 0.928s-0.941-0.412-0.941-0.928c0-16.029 13.176-29.017 29.438-29.069zM29.386 9.068c0.523 0 0.941 0.412 0.941 0.928 0 0.464-0.366 0.876-0.889 0.876-10.562 0-19.137 8.453-19.085 18.812 0 0.515-0.418 0.928-0.941 0.928s-0.941-0.412-0.941-0.928c0-11.339 9.359-20.616 20.915-20.616zM29.386 17.366c0.523 0 0.941 0.412 0.941 0.928s-0.366 0.876-0.889 0.876c-5.856 0-10.667 4.69-10.667 10.514 0 0.515-0.418 0.928-0.941 0.928s-0.941-0.412-0.941-0.928c0-6.803 5.595-12.318 12.497-12.318zM27.974 25.252c-1.203 0-2.196 0.979-2.196 2.165s0.993 2.165 2.196 2.165c1.203 0 2.196-0.979 2.196-2.165s-0.994-2.165-2.196-2.165z">
      </path>
    </symbol>

    <symbol id="service" viewBox="0 0 32 32">
      <path fill="#52503b" style="fill: var(--color1, #52503b)"
        d="M23.656 0c3.073 0 5.625 2.498 5.677 5.672v11.187c0 0.937-0.729 1.665-1.667 1.665h-1.094v11.083c0 1.301-1.094 2.393-2.396 2.393h-1.51c-1.302 0-2.396-1.093-2.396-2.393v-27.941c0-0.937 0.729-1.665 1.667-1.665h1.719zM8.292 0.052c0.521 0 0.938 0.416 0.938 0.937v7.961h2.917v-7.909c0-0.52 0.417-0.937 0.938-0.937s0.885 0.416 0.937 0.885v13.32c0 0.78-0.573 1.353-1.354 1.353h-1.198v13.893c0 1.301-1.094 2.393-2.396 2.393h-1.458c-1.302 0-2.396-1.093-2.396-2.393v-13.945h-1.198c-0.781 0-1.354-0.572-1.354-1.353v-13.268c0-0.468 0.365-0.937 0.885-0.937s0.938 0.416 0.938 0.937v7.909h2.865v-7.909c0-0.52 0.417-0.937 0.938-0.937zM24.75 18.524h-2.656v11.083c0 0.312 0.26 0.572 0.573 0.572h1.51c0.313 0 0.573-0.312 0.573-0.624v-11.031zM9.646 15.662h-2.604v13.945c0 0.312 0.26 0.572 0.573 0.572h1.458c0.313 0 0.573-0.26 0.573-0.572v-13.945zM23.604 1.821h-1.563v14.881h5.417v-11.031c0-2.133-1.719-3.85-3.854-3.85zM12.198 10.719h-7.708v3.122h7.708v-3.122z">
      </path>
    </symbol>

    <symbol id="tree" viewBox="0 0 32 32">
      <path fill="#52503b" style="fill: var(--color1, #52503b)"
        d="M25.878 10.796l0.173 0.009c0.397 0.044 0.744 0.238 0.972 0.549l3.018 4.011c0.312 0.406 0.364 0.965 0.104 1.421-0.156 0.254-0.364 0.457-0.625 0.609l2.29 3.808c0.26 0.457 0.26 0.965-0.052 1.421-0.208 0.457-0.676 0.711-1.197 0.711h-3.747v4.417c0 0.508-0.416 0.914-0.937 0.914s-0.937-0.406-0.937-0.914v-4.417h-3.799c-0.468 0-0.937-0.305-1.197-0.711s-0.26-0.965 0-1.371l2.29-3.858c-0.26-0.102-0.468-0.355-0.625-0.609-0.26-0.457-0.208-1.015 0.104-1.421l3.018-4.011c0.26-0.355 0.677-0.558 1.145-0.558zM8.601 3.333c0.468 0 0.885 0.203 1.145 0.558l4.892 6.397c0.312 0.406 0.364 0.965 0.104 1.421s-0.729 0.762-1.301 0.762l3.695 6.346c0.26 0.406 0.26 0.965 0 1.371-0.208 0.406-0.676 0.66-1.197 0.66h-6.349v6.854c0 0.508-0.416 0.914-0.937 0.914s-0.937-0.406-0.937-0.914v-6.854h-6.297c-0.52 0-0.989-0.305-1.249-0.762-0.26-0.406-0.208-0.965 0.052-1.371l4.059-6.244h-0.468c-0.52 0-0.989-0.305-1.249-0.762s-0.208-1.015 0.104-1.421l4.788-6.397c0.26-0.355 0.677-0.558 1.145-0.558zM25.826 12.827l-2.342 3.097c0.208 0.102 0.416 0.305 0.52 0.508 0.26 0.406 0.26 0.965 0 1.371l-2.186 3.706h8.014l-2.186-3.706c-0.26-0.406-0.26-0.965 0-1.371 0.104-0.203 0.312-0.406 0.52-0.508l-2.342-3.097zM8.601 5.415l-4.007 5.331h0.364c0.52 0 1.041 0.305 1.249 0.711s0.208 0.965-0.052 1.371l-4.007 6.244h13.010l-3.695-6.295c-0.26-0.406-0.26-0.965 0-1.371 0.26-0.355 0.677-0.66 1.145-0.66l-4.007-5.331z">
      </path>
    </symbol>

    <symbol id="hanger" viewBox="0 0 32 32">
      <path fill="#52503b" style="fill: var(--color1, #52503b)"
        d="M27.78 21.351l-9.424-4.935c0.104-0.312 0-0.727-0.311-0.935-0.363-0.312-0.932-0.26-1.294 0.104-0.104 0.156-0.518 0.26-0.984 0.156-0.414-0.104-0.673-0.416-0.725-0.883-0.052-0.675 0.259-1.143 1.036-1.455 0.518-0.208 0.88-0.727 0.828-1.299v-3.377c1.968-0.416 3.418-2.182 3.418-4.312 0-2.442-1.968-4.416-4.401-4.416s-4.401 1.974-4.401 4.416c0 2.13 1.502 3.896 3.521 4.312l0.052 3.065c-1.294 0.675-2.019 1.818-1.864 3.221 0.052 0.519 0.207 0.935 0.466 1.351l-9.476 4.987c-0.777 0.364-1.295 1.091-1.502 1.922 0 0 0 0 0 0.052-0.052 0.208-0.052 0.416-0.052 0.623v5.143c0 1.61 1.294 2.909 2.9 2.909h20.867c1.605 0 2.9-1.299 2.9-2.909v-5.143c0-1.143-0.621-2.13-1.553-2.597zM13.385 4.416c0-1.455 1.139-2.597 2.589-2.597s2.589 1.143 2.589 2.597-1.139 2.597-2.589 2.597c-1.45 0-2.589-1.143-2.589-2.597zM15.405 17.558l0.052-0.052c0.259 0.052 0.466 0.104 0.725 0.104 0.155 0 0.311 0 0.466-0.052l9.527 4.987h-20.349l9.579-4.987zM26.434 30.182h-20.919c-0.621 0-1.087-0.519-1.087-1.091v-4.675h23.094v4.675c0 0.571-0.518 1.091-1.087 1.091z">
      </path>
    </symbol>

    <symbol id="bread" viewBox="0 0 72 32">
      <path fill="#52503b" style="fill: var(--color1, #52503b)"
        d="M36.058 1c-20.136 0-36.058 8.468-36.058 19.113 0 0.968 0.117 2.056 0.468 3.145 0.702 2.177 2.341 3.871 4.566 4.597 5.971 1.936 17.795 3.145 30.907 3.145s24.936-1.21 30.907-3.145c2.224-0.726 3.863-2.419 4.566-4.476l0.117-0.242c0.234-1.089 0.469-2.056 0.469-3.024 0.116-10.766-15.805-19.113-35.942-19.113zM67.784 21.927v0.121c-0.234 0.847-0.937 1.573-1.873 1.815-5.619 1.814-17.326 2.903-29.853 2.903s-24.234-1.21-29.736-2.903c-0.937-0.363-1.639-0.968-1.873-1.815-0.234-0.605-0.234-1.331-0.234-1.935 0-4.234 4.097-8.226 10.536-11.008 1.171 5.202 4.8 8.952 9.132 8.952 1.171 0 2.107-0.968 2.107-2.177s-0.937-2.177-2.107-2.177c-2.459 0-4.683-2.54-5.268-6.169 3.512-1.089 7.61-1.935 11.824-2.298 0.703 5.927 4.215 12.702 9.366 12.702 1.171 0 2.107-0.968 2.107-2.177s-0.937-2.177-2.107-2.177c-2.224 0-4.683-4.234-5.268-8.71 0.468 0 1.054 0 1.522 0 3.512 0 7.024 0.242 10.185 0.847 0.234 6.653 4.449 12.097 9.483 12.097 1.171 0 2.107-0.968 2.107-2.177s-0.937-2.177-2.107-2.177c-2.693 0-4.917-3.145-5.385-7.016 10.302 2.54 17.561 7.621 17.561 13.306 0.117 0.968 0 1.573-0.117 2.177z">
      </path>
    </symbol>

    <symbol id="forest" viewBox="0 0 41 32">
      <path fill="#52503b" style="fill: var(--color1, #52503b)"
        d="M26.449 8.401l0.304 0.011c1.399 0.105 2.542 0.936 3.103 2.226l7.814 18.488h2.271c0.668 0 1.202 0.461 1.202 1.119s-0.534 1.184-1.202 1.184h-38.738c-0.668 0-1.202-0.461-1.202-1.119s0.534-1.184 1.202-1.184h1.469l6.813-16.448c0.534-1.382 1.803-2.237 3.34-2.237 1.536 0.066 2.805 0.855 3.406 2.237l3.072 7.171 3.807-9.211c0.534-1.382 1.803-2.237 3.34-2.237zM26.449 10.769l-0.066 0.002c-0.253 0.015-0.833 0.13-1.137 0.787l-4.742 11.382 2.672 6.25h2.204v-1.579c-1.336-0.592-2.271-2.171-2.271-4.145 0-2.5 1.536-4.408 3.406-4.408s3.406 1.974 3.406 4.408c0 1.974-0.868 3.553-2.204 4.145v1.579h7.414l-7.481-17.633c-0.267-0.724-1.002-0.79-1.202-0.79zM12.824 12.809c-0.2 0-0.868 0.066-1.202 0.79l-6.479 15.593h15.495l-6.612-15.593c-0.267-0.724-1.002-0.79-1.202-0.79zM26.516 21.296c-0.401 0-1.069 0.79-1.069 2.105s0.601 2.105 1.069 2.105 1.069-0.79 1.069-2.105c0-1.316-0.668-2.105-1.069-2.105zM35.199 0.571c2.338 0 4.208 1.842 4.208 4.145s-1.937 4.145-4.208 4.145c-2.271 0-4.208-1.842-4.208-4.145s1.87-4.145 4.208-4.145zM35.199 2.94c-1.002 0-1.87 0.79-1.87 1.842s0.801 1.842 1.87 1.842c1.069 0 1.87-0.79 1.87-1.842s-0.868-1.842-1.87-1.842z">
      </path>
    </symbol>
    <!-- Socisl networks icons -->

    <symbol id="icon-linkedin" viewBox="0 0 20 20">
      <path
        d="M10 0.4c-5.302 0-9.6 4.298-9.6 9.6s4.298 9.6 9.6 9.6 9.6-4.298 9.6-9.6-4.298-9.6-9.6-9.6zM7.65 13.979h-1.944v-6.256h1.944v6.256zM6.666 6.955c-0.614 0-1.011-0.435-1.011-0.973 0-0.549 0.409-0.971 1.036-0.971s1.011 0.422 1.023 0.971c0 0.538-0.396 0.973-1.048 0.973zM14.75 13.979h-1.944v-3.467c0-0.807-0.282-1.355-0.985-1.355-0.537 0-0.856 0.371-0.997 0.728-0.052 0.127-0.065 0.307-0.065 0.486v3.607h-1.945v-4.26c0-0.781-0.025-1.434-0.051-1.996h1.689l0.089 0.869h0.039c0.256-0.408 0.883-1.010 1.932-1.010 1.279 0 2.238 0.857 2.238 2.699v3.699z">
      </path>
    </symbol>

    <symbol id="icon-github" viewBox="0 0 32 32">
      <path
        d="M16 0.395c-8.836 0-16 7.163-16 16 0 7.069 4.585 13.067 10.942 15.182 0.8 0.148 1.094-0.347 1.094-0.77 0-0.381-0.015-1.642-0.022-2.979-4.452 0.968-5.391-1.888-5.391-1.888-0.728-1.849-1.776-2.341-1.776-2.341-1.452-0.993 0.11-0.973 0.11-0.973 1.606 0.113 2.452 1.649 2.452 1.649 1.427 2.446 3.743 1.739 4.656 1.33 0.143-1.034 0.558-1.74 1.016-2.14-3.554-0.404-7.29-1.777-7.29-7.907 0-1.747 0.625-3.174 1.649-4.295-0.166-0.403-0.714-2.030 0.155-4.234 0 0 1.344-0.43 4.401 1.64 1.276-0.355 2.645-0.532 4.005-0.539 1.359 0.006 2.729 0.184 4.008 0.539 3.054-2.070 4.395-1.64 4.395-1.64 0.871 2.204 0.323 3.831 0.157 4.234 1.026 1.12 1.647 2.548 1.647 4.295 0 6.145-3.743 7.498-7.306 7.895 0.574 0.497 1.085 1.47 1.085 2.963 0 2.141-0.019 3.864-0.019 4.391 0 0.426 0.288 0.925 1.099 0.768 6.354-2.118 10.933-8.113 10.933-15.18 0-8.837-7.164-16-16-16z">
      </path>
    </symbol>
  </defs>
</svg>